<svg width="178" height="36" viewBox="0 0 178 36" fill="none" xmlns="http://www.w3.org/2000/svg">
<path fill-rule="evenodd" clip-rule="evenodd" d="M15.8213 1.18059L19.5318 0.153166C18.7846 0.0521381 18.0223 0 17.2481 0C7.72222 0 0 7.89272 0 17.6289C0 27.365 7.72222 35.2578 17.2481 35.2578C26.7739 35.2578 34.4961 27.365 34.4961 17.6289C34.4961 15.6021 34.1615 13.6552 33.5456 11.8427L26.711 13.7352L24.8344 6.49918L29.4898 5.21012C27.7975 3.46747 25.7514 2.08419 23.4707 1.18217L24.8344 6.44054L17.6979 8.41662L15.8213 1.18059ZM19.6307 15.7113L26.7673 13.7353L28.6438 20.9713L21.5073 22.9474L19.6307 15.7113ZM17.7541 8.41661L10.6175 10.3927L12.4941 17.6287L19.6306 15.6526L17.7541 8.41661Z" fill="white"/>
<path d="M58.9028 10.4927V25.3856H54.686L50.1601 17.3299L49.0563 15.1185H49.0342L49.1225 17.8715V25.3856H45.7667V10.4927H49.9835L54.5094 18.5484L55.6133 20.7598H55.6354L55.5471 18.0068V10.4927H58.9028Z" fill="white"/>
<path d="M77.0773 10.4927V19.3156C77.0773 21.4217 76.5254 23.0012 75.4215 24.0543C74.3323 25.0922 72.7133 25.6112 70.5644 25.6112C68.4303 25.6112 66.8113 25.0922 65.7074 24.0543C64.6035 23.0012 64.0516 21.4217 64.0516 19.3156V10.4927H67.871V19.3833C67.871 20.4514 68.0918 21.2487 68.5333 21.7752C68.9896 22.3017 69.6666 22.565 70.5644 22.565C71.477 22.565 72.154 22.3017 72.5956 21.7752C73.0518 21.2487 73.28 20.4514 73.28 19.3833V10.4927H77.0773Z" fill="white"/>
<path d="M99.0877 10.4927V25.3856H95.7319V18.5484L95.8423 13.9677H95.7982L92.1995 25.3856H89.1308L85.5321 13.9677H85.488L85.5984 18.5484V25.3856H82.2205V10.4927H87.6295L89.9256 18.0745L90.7424 21.2336H90.7866L91.6255 18.0971L93.8995 10.4927H99.0877Z" fill="white"/>
<path d="M104.522 25.3856V10.4927H115.87V13.4939H108.32V16.5176H114.325V19.3382H108.32V22.3844H116.157V25.3856H104.522Z" fill="white"/>
<path d="M127.612 10.4927C129.349 10.4927 130.696 10.9139 131.652 11.7563C132.624 12.5837 133.11 13.6894 133.11 15.0734C133.11 16.5928 132.631 17.7511 131.674 18.5484C130.718 19.3457 129.371 19.7443 127.634 19.7443L127.281 19.9474H124.389V25.3856H120.658V10.4927H127.612ZM127.082 17.1945C127.818 17.1945 128.37 17.0441 128.738 16.7432C129.106 16.4423 129.29 15.961 129.29 15.299C129.29 14.6522 129.106 14.1783 128.738 13.8775C128.37 13.5766 127.818 13.4262 127.082 13.4262H124.389V17.1945H127.082ZM129.312 18.0068L133.971 25.3856H129.776L126.045 18.8643L129.312 18.0068Z" fill="white"/>
<path d="M141.884 10.4927V25.3856H138.087V10.4927H141.884Z" fill="white"/>
<path d="M160.239 21.1208C159.959 22.1588 159.51 23.0163 158.892 23.6932C158.274 24.3551 157.538 24.844 156.684 25.1599C155.83 25.4608 154.889 25.6112 153.858 25.6112C152.386 25.6112 151.113 25.3104 150.039 24.7086C148.964 24.0919 148.14 23.2118 147.566 22.0685C146.992 20.9252 146.705 19.5488 146.705 17.9391C146.705 16.3295 146.992 14.9531 147.566 13.8098C148.14 12.6665 148.964 11.794 150.039 11.1922C151.113 10.5754 152.379 10.2671 153.836 10.2671C154.852 10.2671 155.786 10.4175 156.64 10.7184C157.494 11.0042 158.215 11.448 158.804 12.0497C159.392 12.6514 159.812 13.4262 160.062 14.3739L156.728 15.7503C156.522 14.8177 156.184 14.1783 155.713 13.8323C155.256 13.4863 154.675 13.3133 153.969 13.3133C153.277 13.3133 152.673 13.4863 152.158 13.8323C151.658 14.1783 151.268 14.6973 150.988 15.3893C150.723 16.0663 150.591 16.9162 150.591 17.9391C150.591 18.9471 150.716 19.797 150.966 20.489C151.216 21.181 151.592 21.7 152.092 22.046C152.607 22.392 153.24 22.565 153.991 22.565C154.697 22.565 155.293 22.3694 155.779 21.9783C156.279 21.5721 156.618 20.9553 156.795 20.128L160.239 21.1208Z" fill="white"/>
<path d="M163.035 25.3856L168.157 10.4927H172.705L177.805 25.3856H173.897L171.049 15.818L170.409 13.4713H170.365L169.769 15.7955L166.854 25.3856H163.035ZM166.369 22.0234V19.3833H174.471V22.0234H166.369Z" fill="white"/>
</svg>
