<svg width="70" height="70" viewBox="0 0 70 70" fill="none" xmlns="http://www.w3.org/2000/svg">
<path fill-rule="evenodd" clip-rule="evenodd" d="M32.1055 2.28563L39.5445 0.292345C38.057 0.0994732 36.5401 0 35 0C15.67 0 0 15.67 0 35C0 54.33 15.67 70 35 70C54.33 70 70 54.33 70 35C70 30.9953 69.3274 27.1477 68.089 23.5639L54.2594 27.2696L50.3944 12.8453L35.9705 16.7101L32.1055 2.28563ZM50.395 12.8449L59.8175 10.3202C56.3755 6.85909 52.2143 4.11393 47.5769 2.32766L50.395 12.8449ZM39.8355 31.1346L54.26 27.2696L58.1251 41.6941L43.7006 45.5591L39.8355 31.1346ZM35.9698 16.7101L21.5453 20.5752L25.4103 34.9997L39.8348 31.1346L35.9698 16.7101Z" fill="#F84210"/>
</svg>
