<svg width="12" height="18" viewBox="0 0 12 18" fill="none" xmlns="http://www.w3.org/2000/svg">
<path fill-rule="evenodd" clip-rule="evenodd" d="M10.3636 4.56V6.89454H12V16.1673C12 16.7698 11.5116 17.2582 10.9091 17.2582H1.09091C0.488417 17.2582 0 16.7698 0 16.1673V6.89454H1.63636V4.56C1.58759 2.09793 3.53817 0.0595793 6 0C8.46183 0.0595793 10.4124 2.09793 10.3636 4.56ZM6.00004 1.0909C4.14065 1.15026 2.67835 2.7003 2.72731 4.55999V6.89453H9.27276V4.55999C9.32172 2.7003 7.85943 1.15026 6.00004 1.0909ZM1.09085 16.1673V7.98544H10.909V16.1673H1.09085ZM4.78068 10.9519C4.92147 10.3642 5.4448 9.94822 6.0491 9.94364C6.67677 9.94465 7.21616 10.3893 7.33695 11.0052C7.45775 11.6211 7.12625 12.2365 6.54547 12.4746V13.9855H5.45456V12.4255C4.91793 12.1476 4.63989 11.5396 4.78068 10.9519Z" fill="#4c39e9"/>
</svg>
