<svg width="12" height="16" viewBox="0 0 12 16" fill="none" xmlns="http://www.w3.org/2000/svg">
<path fill-rule="evenodd" clip-rule="evenodd" d="M6.00015 7.18664C7.78445 7.18664 9.23091 5.57786 9.23091 3.59332C9.23091 1.60878 7.78445 0 6.00015 0C4.21585 0 2.76939 1.60878 2.76939 3.59332C2.76939 5.57786 4.21585 7.18664 6.00015 7.18664ZM6.0023 8.21536C8.17885 8.21536 10.2595 9.21162 11.7554 10.9701C11.9142 11.1615 12.0016 11.4129 12 11.6734V14.3735C12 14.9405 11.5867 15.4001 11.0769 15.4001H0.923077C0.413277 15.4001 1.10568e-06 14.9405 1.10568e-06 14.3735V11.6734C-0.000362084 11.4122 0.0887616 11.1607 0.249232 10.9701C1.74512 9.21162 3.82575 8.21536 6.0023 8.21536ZM0.923048 11.6679V14.3732H11.0769V11.6679C9.75498 10.1198 7.91957 9.24316 5.99996 9.24316C4.08036 9.24316 2.24494 10.1198 0.923048 11.6679ZM8.30756 3.59334C8.30756 2.17582 7.27438 1.02668 5.99988 1.02668C4.72538 1.02668 3.69219 2.17582 3.69219 3.59334C3.69219 5.01087 4.72538 6.16 5.99988 6.16C7.27438 6.16 8.30756 5.01087 8.30756 3.59334Z" fill="#1B2032"/>
</svg>
